<mxfile host="app.diagrams.net" modified="2024-06-18T06:42:28.420Z" agent="Mozilla/5.0 (Windows NT 10.0; Win64; x64) AppleWebKit/537.36 (KHTML, like Gecko) Chrome/125.0.0.0 Safari/537.36" version="24.5.5" etag="Xpl-JwB-pq1rmcu_HDFr" type="github">
  <diagram name="Page-1" id="h0IfQQk1rWs6S6kpWtq7">
    <mxGraphModel>
      <root>
        <mxCell id="0" />
        <mxCell id="1" parent="0" />
      </root>
    </mxGraphModel>
  </diagram>
</mxfile>
